<svg id="SvgjsSvg1001" width="288" height="288" xmlns="http://www.w3.org/2000/svg" version="1.1" xmlns:xlink="http://www.w3.org/1999/xlink" xmlns:svgjs="http://svgjs.com/svgjs"><defs id="SvgjsDefs1002"></defs><g id="SvgjsG1008" transform="matrix(0.9167,0,0,0.9167,12.013430746755375,11.995201271057141)"><svg xmlns="http://www.w3.org/2000/svg" data-name="Layer 1" viewBox="0 0 27.88 27.88" width="288" height="288"><path fill="#ccdcf4" d="M27.59,11.39l-.47-.11-.17,0-2.09-.49-.94-.24-.13,0-.05-.11-.35-.83,0-.1-.05-.12.06-.11.06-.09.11-.18.59-1,1.13-1.84c.21-.32.2-.41-.07-.67L22.36,2.65c-.2-.2-.28-.23-.34-.23a1,1,0,0,0-.36.15l-1.51.93-1.34.83-.17.1-.08,0-.1.06-.12,0-.93-.39-.11,0,0-.11-.05-.14L17,2.66,16.42.37C16.34.06,16.27,0,16,0h-4.1c-.32,0-.41.07-.48.36s-.2.85-.3,1.29l-.17.74-.25,1.08L10.52,4l0,.13-.12,0-.24.12-.68.28-.12,0-.11-.06-.06,0L9,4.41l-.95-.59-2-1.21a.8.8,0,0,0-.32-.12s-.14,0-.32.2L2.64,5.53c-.27.28-.28.33-.07.68l.6,1,.45.72.6,1,.26.42.06.1,0,.12L4.31,10l-.21.48,0,.1-.12,0,0,0-.11,0L2.3,11l-1.89.45c-.36.1-.41.16-.41.53v4c0,.36.06.44.41.52l1,.22,1,.24,1.08.27.46.11.13,0,0,.12.23.53.17.4,0,.11-.07.11,0,.08-.1.17L3.73,20l-1.1,1.78c-.2.33-.2.4.08.68l2.82,2.81c.2.21.28.24.34.24a.75.75,0,0,0,.34-.15l1.71-1.05,1-.64.25-.16.11-.06.11-.07.11.05.85.35.08,0,.11,0,0,.12,0,.06,0,.12L11,25.36l.51,2.13c.07.33.16.39.48.39H16c.33,0,.41-.07.49-.38s.15-.64.23-1l.13-.59.31-1.27.18-.77,0-.12.12-.05.42-.19.52-.21.12-.05.11.07.88.55,2.16,1.32a.73.73,0,0,0,.36.15c.06,0,.15,0,.36-.23l2.79-2.79c.3-.29.3-.35.07-.71l-.88-1.42-.86-1.4-.11-.19-.05-.08-.06-.11.05-.12.25-.59.14-.34,0-.11.12,0L25,17l2.47-.58c.41-.1.45-.15.45-.58V11.77A.34.34,0,0,0,27.59,11.39Zm-.4,4.41-.19,0-.54.13-1.2.3-.38.09-1.34.31a.39.39,0,0,0-.33.29c-.17.43-.34.86-.53,1.29a.44.44,0,0,0,.05.49c.45.73.9,1.46,1.34,2.19l.41.66s.06.09.08.11l.08.18-.12.14L22,24.59l-.09-.06-.09-.06a1.18,1.18,0,0,1-.19-.11l-.7-.42-2-1.24a.53.53,0,0,0-.31-.12.6.6,0,0,0-.29.09,8.24,8.24,0,0,1-1.1.47.58.58,0,0,0-.44.51c-.17.77-.35,1.55-.54,2.32l-.21.85a.93.93,0,0,1,0,.13l0,.06-.05.17H12.08L12,27l-.1-.41-.26-1.08L11.55,25c-.11-.48-.23-1-.33-1.46a.44.44,0,0,0-.32-.35l-.14-.05c-.35-.13-.69-.26-1-.42a.71.71,0,0,0-.32-.08.59.59,0,0,0-.33.11L7.2,23.93l-.71.44-.23.15-.08,0-.18.1L4.52,23.17,3.44,22.08,3.3,22l.1-.17a1.45,1.45,0,0,1,.12-.22l.42-.67c.41-.67.82-1.35,1.24-2a.53.53,0,0,0,0-.61,8.27,8.27,0,0,1-.48-1.11.53.53,0,0,0-.46-.42l-2.42-.56L1,16l-.11,0-.16-.06L.7,15.69V12.08L.89,12l2-.46.53-.13.29-.07.67-.16a.39.39,0,0,0,.32-.3c.19-.48.34-.87.53-1.27a.48.48,0,0,0,0-.49C4.7,8.41,4.26,7.67,3.8,6.94l-.38-.62-.08-.14L3.25,6l.12-.16,1.5-1.51.91-.91.14-.13.17.09.08.05.25.15.66.4L9,5.19a.54.54,0,0,0,.3.1.56.56,0,0,0,.26-.07,9.78,9.78,0,0,1,1.2-.5.52.52,0,0,0,.34-.42c.19-.8.38-1.61.58-2.42L11.9,1l0-.1,0-.06L12,.7h3.8l0,.19L16.11,2l.22.93.1.43.24,1a.41.41,0,0,0,.3.32l.05,0c.4.15.8.3,1.2.49a.49.49,0,0,0,.24.07.54.54,0,0,0,.3-.1l2-1.27.71-.43.16-.1.07,0,.16-.11.14.14,1.3,1.3,1.12,1.11.15.14-.1.17,0,.06-.11.18L23.92,7,22.7,9a.48.48,0,0,0,0,.58c.2.42.37.84.5,1.2a.44.44,0,0,0,.35.31l2.39.57.73.17.25.06.11,0,.19.05Z" class="colorff6800 svgShape"></path><path fill="#ccdcf4" d="M13.94,6.22A7.72,7.72,0,1,0,21.67,14,7.59,7.59,0,0,0,19.44,8.5,7.72,7.72,0,0,0,14,6.22m3.62,13.69,0,0a.65.65,0,0,1-.22.18,7.12,7.12,0,0,1-3.59.87,6.9,6.9,0,0,1-1.91-.33,7.31,7.31,0,0,1-.92-.36l-.44-.23a.82.82,0,0,1-.2-.12c0-.05,0-.1,0-.17a3.2,3.2,0,0,1,1.6-2.55,4.85,4.85,0,0,1,2.24-.35,4.72,4.72,0,0,1,1.75.27,2.93,2.93,0,0,1,1.32,1.17,2.76,2.76,0,0,1,.43,1.36A.55.55,0,0,1,17.58,19.91Zm1.05-.7-.24.2-.15-.27a1.54,1.54,0,0,1-.09-.19,3.62,3.62,0,0,0-3.23-2.68l-.26,0h-.78a8.16,8.16,0,0,0-.9,0,2.65,2.65,0,0,0-.42.06,3.43,3.43,0,0,0-2.8,2.54l0,.13,0,.09-.11.36-.29-.24a6.94,6.94,0,0,1-2.41-4.76A7.07,7.07,0,0,1,19.11,9.12a7,7,0,0,1-.48,10.09Z" class="colorff6800 svgShape"></path><path fill="#ccdcf4" d="M13.93,9.87a2.84,2.84,0,0,0-2.83,2.84,2.87,2.87,0,0,0,2.07,2.74,2.68,2.68,0,0,0,.76.1,2.63,2.63,0,0,0,.8-.12,2.84,2.84,0,0,0-.8-5.56Zm0,5.11a2.28,2.28,0,1,1,2.28-2.27A2.27,2.27,0,0,1,13.93,15Z" class="colorff6800 svgShape"></path></svg></g></svg>