<svg id="Layer_1" data-name="Layer 1" xmlns="http://www.w3.org/2000/svg" viewBox="0 0 15 15"><defs><style>.cls-1{fill:#c9d9f3;}</style></defs><path class="cls-1" d="M14.43,8.28l-.3,0C10.58,8,10.58,8,10.6,7.67c0-.06,0-.11,0-.17A3.15,3.15,0,0,0,9.29,5l-.21-.15,1.77-3.43.27.16a7,7,0,0,1,3.36,6c0,.14,0,.27,0,.41Zm-3.22-.85,2.66.21a.66.66,0,0,0,0-.14,6.32,6.32,0,0,0-2.8-5.27L9.85,4.63A3.78,3.78,0,0,1,11.21,7.43Z"/><path class="cls-1" d="M12.12,12.73,9.38,10l.23-.21a3.26,3.26,0,0,0,.83-1.28c.1-.3.1-.3,3.58.33l.32.06-.08.31a6.88,6.88,0,0,1-1.93,3.32ZM10.23,10l1.89,1.88a6.3,6.3,0,0,0,1.47-2.52c-1.09-.19-2.22-.39-2.67-.45A3.47,3.47,0,0,1,10.23,10Z"/><path class="cls-1" d="M7.5,14.48A7,7,0,1,1,10.09,1l.28.12-.11.27a30.68,30.68,0,0,1-1.5,3l-.12.21-.23-.07a3.09,3.09,0,0,0-.91-.14,3.11,3.11,0,1,0,1.41,5.88l.23-.12,2.21,3.17-.28.17A6.91,6.91,0,0,1,7.5,14.48Zm0-13.36a6.38,6.38,0,0,0,0,12.76,6.3,6.3,0,0,0,3-.75L8.94,10.91a3.54,3.54,0,0,1-1.44.3,3.71,3.71,0,0,1,0-7.42,4,4,0,0,1,.85.1c.26-.46.88-1.6,1.23-2.41A6.15,6.15,0,0,0,7.5,1.12Z"/></svg>