<svg id="Layer_1" data-name="Layer 1" xmlns="http://www.w3.org/2000/svg" viewBox="0 0 15 15"><defs><style>.cls-1{fill:#c9d9f3;}</style></defs><path class="cls-1" d="M5.75,7.13A2.21,2.21,0,0,1,3.54,4.92H4.1a1.65,1.65,0,1,0,3.29,0A1.63,1.63,0,0,0,5.75,3.28V2.72a2.21,2.21,0,0,1,0,4.41Z"/><path class="cls-1" d="M3.4,5.17,3.16,5V4.85a2.48,2.48,0,0,1,2.52-2.5h.23L6,2.8H6V5.14H3.5Zm.34-.59H5.41V2.93A1.91,1.91,0,0,0,3.74,4.58Z"/><path class="cls-1" d="M8.7,13a3.09,3.09,0,1,1,2.19-.9A3.07,3.07,0,0,1,8.7,13Zm0-5.61a2.52,2.52,0,0,0-1.78,4.31,2.52,2.52,0,0,0,3.57,0A2.53,2.53,0,0,0,8.7,7.36Z"/><path class="cls-1" d="M12.08,14.18a.86.86,0,0,1-.6-.25L9.75,12.21l.32-.19a2.76,2.76,0,0,0,.43-.35h0a2.88,2.88,0,0,0,.35-.43l.18-.31,1.73,1.72a.91.91,0,0,1,0,1.26A.89.89,0,0,1,12.08,14.18ZM10.64,12.3l1.23,1.23a.34.34,0,0,0,.47,0,.35.35,0,0,0,0-.46l-1.24-1.24a2,2,0,0,1-.23.26h0Z"/><polygon class="cls-1" points="11.29 13.64 2 13.64 2 0.82 8.65 0.82 11.86 4.03 11.86 11.87 11.29 11.87 11.29 4.27 8.41 1.39 2.56 1.39 2.56 13.07 11.29 13.07 11.29 13.64"/><path class="cls-1" d="M11.3,4.43H8.81a.56.56,0,0,1-.56-.56V1.38A.4.4,0,0,1,8.49,1a.38.38,0,0,1,.43.08l2.66,2.66a.39.39,0,0,1-.28.67ZM8.81,3.87H10.9L8.81,1.78Z"/><rect class="cls-1" x="3.96" y="8" width="2.46" height="0.56"/><rect class="cls-1" x="3.96" y="9.38" width="1.91" height="0.56"/><rect class="cls-1" x="3.96" y="10.77" width="2.26" height="0.56"/><rect class="cls-1" x="6.18" y="8.83" width="2.5" height="0.56"/><rect class="cls-1" x="6.18" y="10.21" width="2.5" height="0.56"/></svg>