<?xml version="1.0" encoding="utf-8"?>
<!-- Generator: Adobe Illustrator 25.0.0, SVG Export Plug-In . SVG Version: 6.00 Build 0)  -->
<svg version="1.1" id="Layer_1" xmlns="http://www.w3.org/2000/svg" xmlns:xlink="http://www.w3.org/1999/xlink" x="0px" y="0px"
	 viewBox="0 0 662.7 662.7" style="enable-background:new 0 0 662.7 662.7;" xml:space="preserve">
<style type="text/css">
	.st0{opacity:0.16;}
	.st1{fill:#FAB63B;}
	.st2{fill:#135197;}
	.st3{fill:#FFFFFF;}
</style>
<g id="Layer_2_1_" class="st0">
	<g id="Layer_1-2">
		<path class="st1" d="M118,572c-0.4-7.9-0.6-15.9-0.9-23.8c-0.2-6.4,0.1-12.8,0.8-19.2c0.3-2.2,0.7-4.3,1.4-6.5
			c1.6-5.7,5.9-10.1,11.4-11.9c4-1.4,8.1-2.2,12.3-2.5c9.2-0.7,18.5-1,27.8-1c53.2,0,106.3,0.1,159.5,0.1c20.3,0,40.6-0.1,60.9-0.2
			c10.8,0.1,21.6-2.1,31.5-6.6c22.9-10.5,34.6-28.4,35.5-53.5c0.3-8-0.8-15.9-3.4-23.5c-6.8-19.9-20.9-32.2-40.7-38.4
			c-8.3-2.6-16.9-3.4-25.5-3.5c-15.9-0.2-31.8-0.2-47.6-0.2c-23.6,0-47.2,0-70.8,0c-24.7,0-48.2-5.1-70.2-16.5
			c-40.7-21-66-54.2-75.6-99c-6.6-30.8-4.3-61.1,7.3-90.4c17.4-43.4,49.2-71.2,93.9-84.4c14-4,28.5-6.1,43.1-6
			c43.9-0.1,87.8-0.1,131.7,0c19.2,0,38.4,0.2,57.6,0.4c1.8,0,3.5,0,5.3-0.1c0.9,0.1,1.7-0.5,1.8-1.4c0-0.3,0-0.6-0.1-0.8
			c-0.4-1.5-0.9-3-1.4-4.4c-3-8.3-6-16.6-9-24.9c-0.6-1.6-1.7-3.1-1.1-5.2c0.8,0.4,1.5,0.9,2.3,1.4c24,19.8,50.5,35.4,78.1,49.4
			c17.3,8.8,35,16.7,53.1,23.7c0.9,0.4,2,0.6,3,1C527.2,45.7,432-0.1,331.4,0C148.4,0,0,148.4,0,331.4c0,104.1,48.1,197,123.2,257.8
			c-1.9-2-3.3-4.6-3.8-7.3C118.6,578.6,118.2,575.3,118,572z"/>
		<path class="st2" d="M591.8,126.5c-49.5,19.5-96.7,43-138.3,76.8c-0.7-2.1,0.5-3.7,1-5.3c2.6-7.5,5.4-14.9,8-22.4
			c0.5-1.4,1-2.9,1.4-4.4c0.2-0.7-0.2-1.5-0.9-1.7c-0.2,0-0.3-0.1-0.5-0.1c-1.8-0.1-3.5-0.1-5.3-0.1c-57.3,0-114.7,0-172.1,0
			c-11.1,0-22,0.9-32.8,3.8c-2.8,0.7-5.5,1.6-8.2,2.6c-22.3,8.7-35.7,24.7-38.6,48.6c-3,24.6,5.6,44.6,26.2,59
			c4.6,3.1,9.5,5.7,14.6,7.6c10.7,4.1,22.1,6.3,33.6,6.6c28.9,0.9,57.8,0.6,86.7,0.3c10.8-0.1,21.6-0.3,32.4,0
			c19.8,0.5,39.1,4.1,57.2,12.2c46.6,20.8,75.3,56.4,85.3,106.5c14.3,72.5-26.2,135.7-82,162.3c-18.6,8.8-38.8,13.6-59.4,14.1
			c-61.3,1.6-122.6,0.9-184,0.8c-24.1-0.1-48.1,0-72.1,0c-4.4,0.2-8.8-0.1-13.1-0.8c-2-0.4-3.9-1.1-5.6-2.2
			c58.5,46.6,131.2,71.9,206,71.8c183,0,331.4-148.4,331.4-331.4C662.9,257,637.8,184.8,591.8,126.5z"/>
		<path class="st3" d="M592.2,126.3c-0.5-0.9-1.2-1.6-2.2-2c0.6,0.7,1.2,1.4,1.7,2.2L592.2,126.3z"/>
		<path class="st3" d="M125.4,590.9l-2.2-1.7C123.9,589.8,124.6,590.4,125.4,590.9z"/>
		<path class="st3" d="M144.1,594c24,0,48.1-0.1,72.1,0c61.3,0.1,122.6,0.8,184-0.8c20.6-0.4,40.8-5.2,59.4-14.1
			c55.9-26.6,96.4-89.8,82-162.3c-9.9-50.1-38.6-85.7-85.3-106.5c-18.1-8.2-37.4-11.8-57.2-12.3c-10.8-0.3-21.6-0.1-32.4,0
			c-28.9,0.2-57.8,0.5-86.7-0.3c-11.5-0.3-22.8-2.5-33.6-6.6c-5.2-2-10.1-4.5-14.6-7.6c-20.6-14.4-29.2-34.3-26.2-59
			c2.9-23.8,16.2-39.9,38.6-48.6c2.7-1,5.4-1.9,8.2-2.6c10.7-2.9,21.7-3.8,32.7-3.8c57.3,0,114.7,0,172.1,0c1.8,0,3.5,0,5.3,0.1
			c0.7,0,1.4,0.5,1.4,1.3c0,0.2,0,0.3-0.1,0.5c-0.4,1.5-0.8,3-1.4,4.4c-2.7,7.5-5.4,14.9-8,22.4c-0.5,1.6-1.8,3.1-1,5.3
			c41.6-33.8,88.9-57.3,138.3-76.8c-0.6-0.7-1.2-1.4-1.7-2.2c-1-0.4-2.1-0.6-3-1c-18.1-7.1-35.8-15-53.1-23.7
			c-27.6-14-54.2-29.6-78.1-49.4c-0.7-0.5-1.5-1-2.3-1.4c-0.7,2.1,0.5,3.6,1.1,5.2c2.9,8.3,6,16.6,9,24.9c0.5,1.4,1,2.9,1.4,4.4
			c0.3,0.9-0.2,1.8-1.1,2.1c-0.2,0.1-0.4,0.1-0.7,0.1c-1.8,0.1-3.5,0.1-5.3,0.1c-19.2-0.1-38.4-0.4-57.6-0.4
			c-43.9-0.1-87.8-0.1-131.7,0c-14.6-0.1-29.1,2-43.1,6c-44.7,13.2-76.5,41.1-93.9,84.4c-11.7,29.2-13.9,59.6-7.3,90.3
			c9.6,44.9,34.8,78,75.6,99c21.9,11.3,45.5,16.4,70.2,16.5c23.6,0,47.2,0,70.8,0c15.9,0,31.8,0.1,47.6,0.2
			c8.6,0.1,17.2,0.9,25.5,3.5c19.8,6.2,33.9,18.5,40.7,38.4c2.6,7.6,3.7,15.5,3.4,23.5c-0.9,25.1-12.6,43.1-35.5,53.5
			c-9.9,4.4-20.6,6.7-31.5,6.6c-20.3,0.1-40.6,0.1-60.9,0.2c-53.2,0-106.3,0-159.5-0.1c-9.3,0-18.5,0.3-27.8,1
			c-4.2,0.3-8.3,1.1-12.3,2.5c-5.6,1.8-9.9,6.3-11.4,11.9c-0.7,2.1-1.1,4.3-1.4,6.5c-0.8,6.4-1,12.8-0.8,19.2
			c0.3,7.9,0.5,15.9,0.9,23.8c0.2,3.3,0.6,6.6,1.3,9.8c0.6,2.7,1.9,5.3,3.8,7.3l2.2,1.7c1.7,1.1,3.6,1.8,5.6,2.2
			C135.3,593.8,139.7,594.2,144.1,594z"/>
	</g>
</g>
</svg>
